<?xml version="1.0" encoding="UTF-8" standalone="no"?>
<!-- Created with Inkscape (http://www.inkscape.org/) -->

<svg
   width="452.96667mm"
   height="980.01666mm"
   version="1.1"
   viewBox="0 0 452.96667 980.01666"
   xml:space="preserve"
   id="svg3"
   sodipodi:docname="splash.svg"
   inkscape:version="1.3 (0e150ed6c4, 2023-07-21)"
   inkscape:export-filename="splash.png"
   inkscape:export-xdpi="96"
   inkscape:export-ydpi="96"
   xmlns:inkscape="http://www.inkscape.org/namespaces/inkscape"
   xmlns:sodipodi="http://sodipodi.sourceforge.net/DTD/sodipodi-0.dtd"
   xmlns="http://www.w3.org/2000/svg"
   xmlns:svg="http://www.w3.org/2000/svg"><defs
     id="defs3" /><sodipodi:namedview
     id="namedview3"
     pagecolor="#ffffff"
     bordercolor="#000000"
     borderopacity="0.25"
     inkscape:showpageshadow="2"
     inkscape:pageopacity="0.0"
     inkscape:pagecheckerboard="0"
     inkscape:deskcolor="#d1d1d1"
     inkscape:document-units="mm"
     inkscape:zoom="0.1611194"
     inkscape:cx="853.40435"
     inkscape:cy="1421.3062"
     inkscape:window-width="1853"
     inkscape:window-height="1016"
     inkscape:window-x="67"
     inkscape:window-y="27"
     inkscape:window-maximized="1"
     inkscape:current-layer="svg3" /><rect
     style="fill:#ffd60a;stroke-width:0.644329;stroke-linecap:round;stroke-linejoin:round"
     id="rect3"
     width="453"
     height="980"
     x="0"
     y="0" /><g
     transform="matrix(3.3872693,0,0,3.3872693,-151.85432,296.23282)"
     id="g3"><rect
       x="69.819"
       y="15.332"
       width="83.75"
       height="83.75"
       rx="15"
       fill="#001d3d"
       id="rect1" /><g
       transform="translate(0,-1.0583)"
       fill="#ffd60a"
       id="g2"><path
         d="m 87.122,82.709 c -1.4271,-0.44506 -2.8415,-1.7488 -3.5159,-3.2408 -0.35228,-0.77947 -0.6708,-1.1245 -1.0381,-1.1245 -0.87307,0 -2.056,-0.75199 -2.4835,-1.5788 -0.32207,-0.62282 -0.40135,-1.8947 -0.40135,-6.4387 0,-5.4479 0.02278,-5.6966 0.601,-6.5616 0.34032,-0.50908 0.95532,-1.0043 1.4179,-1.1417 l 0.81691,-0.24266 0.15061,-2.8 c 0.33725,-6.2697 2.3088,-11.975 5.6946,-16.479 6.1178,-8.1385 16.462,-12.747 26.096,-11.627 6.9488,0.80773 12.73,3.4956 17.399,8.0893 5.5884,5.4985 8.4317,11.917 8.8674,20.017 l 0.15061,2.8 0.81691,0.24266 c 0.46259,0.1374 1.0776,0.63259 1.4179,1.1417 0.57948,0.86684 0.60066,1.1036 0.59162,6.6146 -0.007,4.1391 -0.10293,5.8842 -0.34857,6.3268 -0.43393,0.78199 -1.7219,1.6337 -2.4739,1.636 -0.43016,0.001 -0.71413,0.29645 -1.0835,1.1262 -1.0718,2.4075 -3.2607,3.638 -6.4717,3.638 -1.3712,0 -1.6533,-0.0935 -2.3332,-0.7734 l -0.7734,-0.7734 v -22.266 -0.04071 c 0,0 -0.0102,-0.45986 0.51061,-0.82953 0.83629,-0.5936 1.1674,-0.71726 3.1409,-0.71726 h 2.1047 l -0.36996,-1.7859 c -1.1228,-5.4203 -3.441,-9.5665 -7.4451,-13.316 -4.7315,-4.4307 -9.8398,-6.4242 -16.462,-6.4242 -6.6906,0 -11.758,2.0002 -16.584,6.546 -3.7377,3.5206 -6.1205,7.7289 -7.2169,12.746 l -0.48823,2.2342 h 1.9457 c 2.2195,0 3.109,0.3106 3.529,1.2322 0.20022,0.43944 0.29376,4.1434 0.29376,11.633 v 10.988 l -0.7734,0.7734 c -0.69722,0.69722 -0.93828,0.77165 -2.4474,0.7557 -0.9207,-0.01 -2.196,-0.1805 -2.8341,-0.37947 z"
         id="path1" /><path
         d="m 103.25,81.922 c -2.9786,-0.15429 -4.8631,-0.43412 -5.6671,-0.84153 -0.99035,-0.50185 -1.8453,-1.5319 -2.162,-2.6049 -1.0192,-3.4524 -0.97465,-13.715 0.07342,-16.912 0.24733,-0.75457 1.0788,-1.7332 1.8629,-2.1928 1.4264,-0.83595 4.4751,-1.0619 14.328,-1.0619 9.7901,0 13.06,0.24027 14.464,1.0626 1.3855,0.81197 1.9981,1.9783 2.3588,4.4911 0.28111,1.9583 0.24518,11.132 -0.0506,12.933 -0.36896,2.2462 -0.8348,3.1988 -1.9339,3.9551 -1.1146,0.76688 -2.1896,0.95846 -6.6701,1.1887 -2.9849,0.15341 -13.518,0.14225 -16.603,-0.01759 z m 9.942,-9.3572 c 2.2277,-1.2823 4.0495,-2.364 4.0483,-2.4037 -0.003,-0.08558 -8.7223,-5.0935 -8.8686,-5.0935 -0.0552,2.4e-5 -0.10043,2.3258 -0.10043,5.1684 v 5.1683 l 0.43517,-0.25402 c 0.23935,-0.13971 2.2579,-1.3032 4.4856,-2.5855 z"
         stroke-width="0.50607"
         id="path2" /></g></g></svg>
